<?xml version="1.0" encoding="utf-8"?>
<!-- Generator: Adobe Illustrator 21.0.0, SVG Export Plug-In . SVG Version: 6.00 Build 0)  -->
<svg version="1.1" xmlns="http://www.w3.org/2000/svg" xmlns:xlink="http://www.w3.org/1999/xlink" x="0px" y="0px"
	 viewBox="0 0 32 32" style="enable-background:new 0 0 32 32;" xml:space="preserve">
<style type="text/css">
	.st0{fill:#FFFFFF;}
	.st1{fill:#36CC68;}
	.st2{fill:url(#SVGID_1_);}
	.st3{fill:url(#SVGID_2_);}
	.st4{fill:url(#SVGID_3_);}
	.st5{fill:url(#SVGID_4_);}
	.st6{fill:url(#SVGID_5_);}
	.st7{fill:url(#SVGID_6_);}
	.st8{fill:#00CD60;}
	.st9{fill:url(#SVGID_7_);}
	.st10{display:none;fill:url(#SVGID_8_);}
	.st11{fill:url(#SVGID_9_);}
	.st12{fill:url(#SVGID_10_);}
</style>
<g id="Capa_1">
	<path class="st0" d="M16,32L16,32C7.2,32,0,24.8,0,16v0C0,7.2,7.2,0,16,0h0c8.8,0,16,7.2,16,16v0C32,24.8,24.8,32,16,32z"/>
</g>
<g id="Capa_2">
	<g>
		<path class="st1" d="M26.9,17.7c-0.8-0.1-0.7-1.1-0.7-1.1c0.7,0.1,1.7,0.1,2.3,0c0.5-0.1,1.6-0.2,1.9-1c0.3-0.8,0.1-1.5-0.9-1.7
			c-0.7-0.1-1.4-0.1-2.3,0c-1.3,0.2-2,0.6-2.3,1.4c-0.2,0.4-0.3,0.9-0.3,1.4c-0.1,0.8,0.1,1.6,1.1,1.7c1.4,0.1,2.5,0.1,3.6-0.1
			l0.4-0.5C28.6,17.8,27.3,17.8,26.9,17.7 M26.6,15.2c0.2-0.5,0.5-0.9,1.2-1c0.3-0.1,0.5-0.1,0.8,0c0.5,0.1,0.6,0.7,0.4,1.1
			c-0.2,0.5-0.5,0.6-1,0.7c-0.4,0.1-1,0.1-1.7,0.1C26.4,15.8,26.5,15.4,26.6,15.2"/>
	</g>
	<linearGradient id="SVGID_1_" gradientUnits="userSpaceOnUse" x1="20.1045" y1="16.0671" x2="21.1242" y2="16.0671">
		<stop  offset="0" style="stop-color:#007F67"/>
		<stop  offset="1" style="stop-color:#36CC68"/>
	</linearGradient>
	<path class="st2" d="M20.2,15.7c0,0.3-0.1,0.5-0.1,0.7H21c0-0.1,0.1-0.4,0.1-0.7H20.2z"/>
	<g>
		<path class="st1" d="M4.1,17.7c-0.4-0.1-0.6-0.4-0.6-0.6c-0.1-0.3,0-0.7,0-0.8c0-0.4,0.4-1.2,0.4-1.2s0.5-1.1,0.9-1.9
			c0.2-0.4,2.1-0.7,2.7-0.7L7.8,12l-2.3,0c0.2-0.4,0.3-0.7,0.4-1c-0.6,0.1-1.2-0.2-1.6,0c-0.1,0-0.3,0.4-0.5,1H1.9l0.3,0.5
			c0.2,0,1.1,0,1.3,0.1c-0.2,0.4-0.4,0.8-0.6,1.2c-0.2,0.3-0.4,0.7-0.6,1.1C2.2,15,2,15.3,2,15.4c-0.1,0.4-0.2,0.7-0.2,1.1
			c-0.1,0.8,0.1,1.6,1.1,1.7c1.4,0.1,2.5,0.1,3.6-0.1l0.4-0.5C5.8,17.8,4.5,17.8,4.1,17.7z"/>
		<linearGradient id="SVGID_2_" gradientUnits="userSpaceOnUse" x1="4.7489" y1="12.5369" x2="7.7827" y2="12.5369">
			<stop  offset="0" style="stop-color:#007F67"/>
			<stop  offset="1" style="stop-color:#36CC68"/>
		</linearGradient>
		<path class="st3" d="M4.7,13.1c0.2-0.4,2.1-0.7,2.7-0.7L7.8,12l-2.3,0L4.7,13.1z"/>
		<linearGradient id="SVGID_3_" gradientUnits="userSpaceOnUse" x1="3.8079" y1="12.2177" x2="1.8793" y2="12.2177">
			<stop  offset="0" style="stop-color:#007F67"/>
			<stop  offset="1" style="stop-color:#36CC68"/>
		</linearGradient>
		<path class="st4" d="M3.5,12.5c-0.1-0.1-1.1-0.1-1.3-0.1L1.9,12h1.9C4,11.4,3.3,12.9,3.5,12.5z"/>
		<linearGradient id="SVGID_4_" gradientUnits="userSpaceOnUse" x1="3.5402" y1="17.7978" x2="6.8648" y2="17.7978">
			<stop  offset="0" style="stop-color:#007F67"/>
			<stop  offset="1" style="stop-color:#36CC68"/>
		</linearGradient>
		<path class="st5" d="M3.5,17.3c0.1,0.2,0.3,0.3,0.6,0.4c0.4,0.1,1.7,0.1,2.8-0.1l-0.4,0.5c-0.8,0.1-1.6,0.2-2.5,0.2
			C3.8,18.3,3.5,17.2,3.5,17.3z"/>
	</g>
	<g>
		<g>
			<path class="st1" d="M18.5,13.8h-4.2c-0.2,1.2-0.6,3.4-0.8,4.4h1.8c0.1-0.8,0.5-2.9,0.7-3.9h1.3c0.6,0,1,0.4,0.9,1
				c-0.1,0.5-0.3,1.8-0.5,2.8h1.8c0.1-0.7,0.4-2.1,0.5-2.8C20.2,14.5,19.7,13.8,18.5,13.8"/>
		</g>
		<linearGradient id="SVGID_5_" gradientUnits="userSpaceOnUse" x1="18.8678" y1="14.4142" x2="18.8678" y2="18.2072">
			<stop  offset="0" style="stop-color:#007F67"/>
			<stop  offset="1" style="stop-color:#36CC68"/>
		</linearGradient>
		<path class="st6" d="M17.9,14.5c0.2,0.2,0.4,0.5,0.3,0.9c-0.1,0.5-0.3,1.8-0.5,2.8h1.8c0.1-0.7,0.4-2.1,0.5-2.8
			C20.1,14.2,17.8,14.4,17.9,14.5z"/>
	</g>
	<linearGradient id="SVGID_6_" gradientUnits="userSpaceOnUse" x1="8.6219" y1="16.0006" x2="13.1005" y2="16.0006">
		<stop  offset="0" style="stop-color:#007F67"/>
		<stop  offset="1" style="stop-color:#36CC68"/>
	</linearGradient>
	<path class="st7" d="M9.4,17.7c-0.8-0.1-0.7-1.1-0.7-1.1c0.7,0.1,1.7,0.1,2.3,0c0.5-0.1,1.6-0.2,1.9-1c0.3-0.8,0.1-1.5-0.9-1.7
		c-0.7-0.1-1.4-0.1-2.3,0c-1.3,0.2-1.1,4.5-1,4.5c1.1,0.1,2.1,0,3.1-0.1l0.4-0.5C11.1,17.8,9.8,17.8,9.4,17.7 M9.1,15.2
		c0.2-0.5,0.5-0.9,1.2-1c0.3-0.1,0.5-0.1,0.8,0c0.5,0.1,0.6,0.7,0.4,1.1c-0.2,0.5-0.5,0.6-1,0.7c-0.4,0.1-1,0.1-1.7,0.1
		C8.9,15.8,9,15.4,9.1,15.2"/>
	<path class="st8" d="M9.4,17.7L9.4,17.7c-0.8-0.1-0.7-1.1-0.7-1.1l0.1-0.5c0-0.3,0.2-0.6,0.2-0.8c0.1-0.3,0.3-0.5,0.5-0.7l0-0.1
		c0,0,0.3-0.5,0.9-0.8c-0.2,0-0.5,0-0.8,0.1c-1.3,0.2-2,0.6-2.3,1.4c-0.2,0.4-0.3,0.9-0.3,1.4c-0.1,0.8,0.1,1.6,1.1,1.7
		c1.4,0.1,2.5,0.1,3.6-0.1l0.4-0.5C11.1,17.8,9.8,17.8,9.4,17.7z"/>
	<g>
		<linearGradient id="SVGID_7_" gradientUnits="userSpaceOnUse" x1="26.1286" y1="16.0006" x2="30.6072" y2="16.0006">
			<stop  offset="0" style="stop-color:#007F67"/>
			<stop  offset="1" style="stop-color:#36CC68"/>
		</linearGradient>
		<path class="st9" d="M26.9,17.7c-0.8-0.1-0.7-1.1-0.7-1.1c0.7,0.1,1.7,0.1,2.3,0c0.5-0.1,1.6-0.2,1.9-1c0.3-0.8,0.1-1.5-0.9-1.7
			c-0.7-0.1-1.4-0.1-2.3,0c-1.3,0.2-1.1,4.5-1,4.5c1.1,0.1,2.1,0,3.1-0.1l0.4-0.5C28.6,17.8,27.3,17.8,26.9,17.7 M26.6,15.2
			c0.2-0.5,0.5-0.9,1.2-1c0.3-0.1,0.5-0.1,0.8,0c0.5,0.1,0.6,0.7,0.4,1.1c-0.2,0.5-0.5,0.6-1,0.7c-0.4,0.1-1,0.1-1.7,0.1
			C26.4,15.8,26.5,15.4,26.6,15.2"/>
		<path class="st8" d="M26.9,17.7L26.9,17.7c-0.8-0.1-0.7-1.1-0.7-1.1l0.1-0.5c0-0.3,0.2-0.6,0.2-0.8c0.1-0.3,0.3-0.5,0.5-0.7l0-0.1
			c0,0,0.3-0.5,0.9-0.8c-0.2,0-0.5,0-0.8,0.1c-1.3,0.2-2,0.6-2.3,1.4c-0.2,0.4-0.3,0.9-0.3,1.4c-0.1,0.8,0.1,1.6,1.1,1.7
			c1.4,0.1,2.5,0.1,3.6-0.1l0.4-0.5C28.6,17.8,27.3,17.8,26.9,17.7z"/>
	</g>
	<path class="st1" d="M20.2,15.7c0,0.3-0.1,0.5-0.1,0.7c0,0,0.1-0.4,1-0.7H20.2z"/>
	<g>
		<g>
			<path class="st1" d="M23.3,11.1c-1,0.7-1.4,1.6-1.5,2.7L21,18.1c-0.2,1-0.2,1.5-0.4,2c-0.1,0.4-0.6,1-1.3,1l-0.3,0.5
				c0.9,0,1.7-0.2,2.2-0.6c1-0.7,1.4-1.7,1.6-2.8c0-0.1,0.3-2,0.5-2.9c0.1-0.6,0.4-1,1.2-1l0.3-0.5h-1.2c0.2-1,0.2-1.4,0.4-1.8
				c0.1-0.4,0.6-1,1.3-1l0.3-0.5C24.6,10.4,23.8,10.7,23.3,11.1"/>
		</g>
		<linearGradient id="SVGID_8_" gradientUnits="userSpaceOnUse" x1="22.8443" y1="12.1374" x2="25.5227" y2="12.1374">
			<stop  offset="0" style="stop-color:#007F67"/>
			<stop  offset="9.155159e-02" style="stop-color:#088A67"/>
			<stop  offset="0.253" style="stop-color:#1DA868"/>
			<stop  offset="0.4164" style="stop-color:#36CC68"/>
		</linearGradient>
		<path class="st10" d="M23.5,13.8c0.2-1,0.2-1.4,0.4-1.8c0.1-0.4,0.6-1,1.3-1l0.3-0.5c-1,0-1.7,0.2-2.2,0.6
			C22.2,11.9,23.5,13.8,23.5,13.8z"/>
		<linearGradient id="SVGID_9_" gradientUnits="userSpaceOnUse" x1="21.4303" y1="18.6517" x2="20.0204" y2="21.9733">
			<stop  offset="0" style="stop-color:#007F67"/>
			<stop  offset="0.1603" style="stop-color:#038467"/>
			<stop  offset="0.3459" style="stop-color:#0D9267"/>
			<stop  offset="0.5441" style="stop-color:#1DA968"/>
			<stop  offset="0.75" style="stop-color:#34C968"/>
			<stop  offset="0.7651" style="stop-color:#36CC68"/>
		</linearGradient>
		<path class="st11" d="M20.6,20c0,0.1-0.1,0.2-0.2,0.4c-0.2,0.3-0.6,0.6-1.1,0.7l-0.3,0.5c0.9,0,1.7-0.2,2.2-0.6
			c0.7-0.5,1.1-1.1,1.3-1.7C22.6,18.8,21.9,19.9,20.6,20z"/>
		<linearGradient id="SVGID_10_" gradientUnits="userSpaceOnUse" x1="23.2267" y1="14.5074" x2="24.7325" y2="14.5074">
			<stop  offset="0" style="stop-color:#007F67"/>
			<stop  offset="1" style="stop-color:#36CC68"/>
		</linearGradient>
		<path class="st12" d="M23.3,15.3c0.1-0.6,0.4-1,1.2-1l0.3-0.5h-1.2C23.7,12.8,23.1,16.1,23.3,15.3z"/>
	</g>
</g>
</svg>
