<?xml version="1.0" encoding="utf-8"?>
<!-- Generator: Adobe Illustrator 21.0.0, SVG Export Plug-In . SVG Version: 6.00 Build 0)  -->
<svg version="1.1" id="Capa_2" xmlns="http://www.w3.org/2000/svg" xmlns:xlink="http://www.w3.org/1999/xlink" x="0px" y="0px"
	 viewBox="0 0 400.1 152.9" style="enable-background:new 0 0 400.1 152.9;" xml:space="preserve">
<style type="text/css">
	.st0{fill:#36CC68;}
	.st1{fill:url(#SVGID_1_);}
	.st2{fill:url(#SVGID_2_);}
	.st3{fill:url(#SVGID_3_);}
	.st4{fill:url(#SVGID_4_);}
	.st5{fill:url(#SVGID_5_);}
	.st6{fill:url(#SVGID_6_);}
	.st7{fill:#00CD60;}
	.st8{fill:url(#SVGID_7_);}
	.st9{display:none;fill:url(#SVGID_8_);}
	.st10{fill:url(#SVGID_9_);}
	.st11{fill:url(#SVGID_10_);}
</style>
<g>
	<path class="st0" d="M349,99.8c-11.5-1.9-9.3-15.6-9.3-15.6c10.2,1.2,23,0.9,31.8,0.1c7.6-0.7,22.6-2.6,26.9-14.3
		c4.2-11.6,1-21-13-23.6c-10.3-1.9-19.9-2-32.4-0.3c-17.8,2.4-27.6,8.4-32,19c-2.4,5.8-3.9,12.8-4.5,19.1c-1.1,11.5,1,22,15.4,23.1
		c19.2,1.5,34.4,1.2,50.5-1.3l5-7.1C372.1,101.3,354.8,100.7,349,99.8 M344.2,65.7c3.1-7.3,7.6-11.9,16-13.8
		c3.7-0.9,6.9-0.8,11.4,0.1c6.6,1.4,8.6,9.1,5.8,15.2c-3.3,6.7-7.6,8.2-13.3,9.4c-6.2,1.3-14.3,1.5-23.2,0.8
		C341.5,73.7,343,68.4,344.2,65.7"/>
</g>
<linearGradient id="SVGID_1_" gradientUnits="userSpaceOnUse" x1="254.5653" y1="77.4026" x2="268.697" y2="77.4026">
	<stop  offset="0" style="stop-color:#007F67"/>
	<stop  offset="1" style="stop-color:#36CC68"/>
</linearGradient>
<path class="st1" d="M256.2,72.8c-0.6,3.5-1.2,6.8-1.6,9.2h12.5c0.4-2,0.9-5.4,1.6-9.2H256.2z"/>
<g>
	<path class="st0" d="M32.7,99.8c-5.7-0.9-8.1-4.9-9-8.5c-0.9-3.7-0.5-10.2-0.3-11.7c0.6-6,5.3-16.9,5.3-16.9s7.6-15,13.1-26
		c3.4-5.9,29.4-9.6,37.4-9.5l4.7-6.3l-32.4-0.3c2.3-5.2,4.5-10,6.1-13.4c-8.3,1.1-16.8-2.6-21.9,0.1c-1,0.5-4,6.1-7.6,13.3H2
		l4.5,6.4c3,0,15.4,0.5,17.5,1.4c-2.8,5.6-5.6,11.5-8,16.5c-2.1,4.3-5.7,10.2-8.3,14.7c-1.5,2.5-4,8-4.4,9.2
		c-1.6,5-2.6,10.4-3.1,15.4c-1.1,11.5,1,22,15.4,23.1c19.3,1.5,34.4,1.2,50.4-1.3l5-7.1C55.9,101.3,38.5,100.7,32.7,99.8z"/>
	<linearGradient id="SVGID_2_" gradientUnits="userSpaceOnUse" x1="41.763" y1="28.4803" x2="83.8061" y2="28.4803">
		<stop  offset="0" style="stop-color:#007F67"/>
		<stop  offset="1" style="stop-color:#36CC68"/>
	</linearGradient>
	<path class="st2" d="M41.8,36.6c3.4-5.9,29.4-9.6,37.4-9.5l4.7-6.3l-32.4-0.3L41.8,36.6z"/>
	<linearGradient id="SVGID_3_" gradientUnits="userSpaceOnUse" x1="28.7223" y1="24.0579" x2="1.9958" y2="24.0579">
		<stop  offset="0" style="stop-color:#007F67"/>
		<stop  offset="1" style="stop-color:#36CC68"/>
	</linearGradient>
	<path class="st3" d="M24,28.3C22,27.4,9.5,26.9,6.5,26.9L2,20.4h25.9C31.6,13.2,21.3,33.9,24,28.3z"/>
	<linearGradient id="SVGID_4_" gradientUnits="userSpaceOnUse" x1="25.0127" y1="101.3872" x2="71.0862" y2="101.3872">
		<stop  offset="0" style="stop-color:#007F67"/>
		<stop  offset="1" style="stop-color:#36CC68"/>
	</linearGradient>
	<path class="st4" d="M25.1,94.7c1.4,2.4,3.7,4.5,7.7,5.1c5.8,1,23.1,1.6,38.4-1l-5,7.1c-11.5,1.8-22.1,2.4-34.9,2.2
		C29,108.1,24.4,93.6,25.1,94.7z"/>
</g>
<g>
	<g>
		<path class="st0" d="M232.6,45.9h-58.2c-3.1,17.2-8.1,46.8-10.7,61.2h24.7c1.9-10.8,7.1-40.6,9.4-53.6h18.5
			c7.8,0,13.4,5.3,12.1,14.3c-1.2,7.1-4.2,24.3-6.9,39.4h24.7c1.8-10.1,5.2-29.7,6.8-39C255.4,55.6,248.7,45.9,232.6,45.9"/>
	</g>
	<linearGradient id="SVGID_5_" gradientUnits="userSpaceOnUse" x1="237.426" y1="54.4968" x2="237.426" y2="107.0607">
		<stop  offset="0" style="stop-color:#007F67"/>
		<stop  offset="1" style="stop-color:#36CC68"/>
	</linearGradient>
	<path class="st5" d="M224,55.6c3.4,2.3,5.3,6.5,4.5,12.1c-1.2,7.1-4.2,24.3-6.9,39.4h24.7c1.8-10.1,5.2-29.7,6.8-39
		C254.6,51.4,222,54.2,224,55.6z"/>
</g>
<linearGradient id="SVGID_6_" gradientUnits="userSpaceOnUse" x1="95.4365" y1="76.4818" x2="157.5014" y2="76.4818">
	<stop  offset="0" style="stop-color:#007F67"/>
	<stop  offset="1" style="stop-color:#36CC68"/>
</linearGradient>
<path class="st6" d="M106.4,99.8C94.9,97.9,97,84.1,97,84.1c10.2,1.2,23,0.9,31.8,0.1c7.6-0.7,22.6-2.6,26.9-14.3
	c4.2-11.6,1-21-13-23.6c-10.3-1.9-19.9-2-32.4-0.3c-17.8,2.4-15.9,61.7-13.4,61.8c15.7,0.9,28.9,0.3,42.7-1.8l5-7.1
	C129.5,101.3,112.2,100.7,106.4,99.8 M101.6,65.7c3.1-7.3,7.6-11.9,16-13.8c3.7-0.9,6.9-0.8,11.4,0.1c6.6,1.4,8.7,9.1,5.7,15.2
	c-3.2,6.7-7.6,8.2-13.3,9.4c-6.2,1.3-14.3,1.5-23.2,0.8C98.8,73.7,100.4,68.4,101.6,65.7"/>
<path class="st7" d="M106.4,99.8L106.4,99.8C94.9,97.9,97,84.1,97,84.1l1.2-6.7c0.6-3.7,2.2-9,3.3-11.7c1.7-4,3.8-7.1,6.7-9.5
	l0.3-0.7c0,0,4-7.2,12.7-10.6c-3.4,0.2-7,0.5-10.9,1c-17.8,2.4-27.7,8.4-32,19c-2.4,5.8-3.8,12.8-4.5,19.1c-1.1,11.5,1,22,15.4,23.1
	c19.3,1.5,34.4,1.2,50.4-1.3l5-7.1C129.5,101.3,112.2,100.7,106.4,99.8z"/>
<g>
	<linearGradient id="SVGID_7_" gradientUnits="userSpaceOnUse" x1="338.0487" y1="76.4818" x2="400.1136" y2="76.4818">
		<stop  offset="0" style="stop-color:#007F67"/>
		<stop  offset="1" style="stop-color:#36CC68"/>
	</linearGradient>
	<path class="st8" d="M349,99.8c-11.5-1.9-9.3-15.6-9.3-15.6c10.2,1.2,23,0.9,31.8,0.1c7.6-0.7,22.6-2.6,26.9-14.3
		c4.2-11.6,1-21-13-23.6c-10.3-1.9-19.9-2-32.4-0.3c-17.8,2.4-15.9,61.7-13.4,61.8c15.7,0.9,28.9,0.3,42.7-1.8l5-7.1
		C372.1,101.3,354.8,100.7,349,99.8 M344.2,65.7c3.1-7.3,7.6-11.9,16-13.8c3.7-0.9,6.9-0.8,11.4,0.1c6.6,1.4,8.7,9.1,5.7,15.2
		c-3.2,6.7-7.6,8.2-13.3,9.4c-6.2,1.3-14.3,1.5-23.2,0.8C341.5,73.7,343,68.4,344.2,65.7"/>
	<path class="st7" d="M349,99.8L349,99.8c-11.5-1.9-9.3-15.6-9.3-15.6l1.2-6.7c0.6-3.7,2.2-9,3.3-11.7c1.7-4,3.8-7.1,6.7-9.5
		l0.3-0.7c0,0,4-7.2,12.7-10.6c-3.4,0.2-7,0.5-10.9,1c-17.8,2.4-27.7,8.4-32,19c-2.4,5.8-3.8,12.8-4.5,19.1
		c-1.1,11.5,1,22,15.4,23.1c19.3,1.5,34.4,1.2,50.4-1.3l5-7.1C372.1,101.3,354.8,100.7,349,99.8z"/>
</g>
<path class="st0" d="M256.2,72.8c-0.6,3.5-1.2,6.8-1.6,9.2c0,0,1-5.5,14.1-9.2H256.2z"/>
<g>
	<g>
		<path class="st0" d="M298.6,8.4c-14,9.9-18.8,21.9-21.4,36.8l-10.5,59.9c-2.4,13.6-3.4,20.7-5.7,27.4c-1.9,5.6-8,13.9-18.2,14
			l-4.4,6.3c13.1,0.6,23.6-3.2,31.1-8.3c14-9.8,19.2-23.9,21.8-38.7c0.2-1,4.7-27.2,6.9-39.7c1.6-8.8,6.2-13.7,16-13.8l4.5-6.4h-17
			c2.4-13.7,3.3-19.7,5.3-25.4c1.9-5.6,8-13.9,18.1-14l4.5-6.4C316.5-0.6,306,3.2,298.6,8.4"/>
	</g>
	<linearGradient id="SVGID_8_" gradientUnits="userSpaceOnUse" x1="292.5344" y1="22.9445" x2="329.6523" y2="22.9445">
		<stop  offset="0" style="stop-color:#007F67"/>
		<stop  offset="9.155159e-02" style="stop-color:#088A67"/>
		<stop  offset="0.253" style="stop-color:#1DA868"/>
		<stop  offset="0.4164" style="stop-color:#36CC68"/>
	</linearGradient>
	<path class="st9" d="M301.7,45.9c2.4-13.7,3.3-19.7,5.3-25.4c1.9-5.6,8-13.9,18.1-14l4.5-6.4c-13.2-0.7-23.7,3.1-31.1,8.3
		C283.3,19,301.7,45.9,301.7,45.9z"/>
	<linearGradient id="SVGID_9_" gradientUnits="userSpaceOnUse" x1="272.9384" y1="113.2218" x2="253.3996" y2="159.2523">
		<stop  offset="0" style="stop-color:#007F67"/>
		<stop  offset="0.1603" style="stop-color:#038467"/>
		<stop  offset="0.3459" style="stop-color:#0D9267"/>
		<stop  offset="0.5441" style="stop-color:#1DA968"/>
		<stop  offset="0.75" style="stop-color:#34C968"/>
		<stop  offset="0.7651" style="stop-color:#36CC68"/>
	</linearGradient>
	<path class="st10" d="M261,132.6c-0.5,1.5-1.3,3.2-2.5,4.9c-3,4.5-8.3,8.9-15.7,9l-4.4,6.3c13.1,0.6,23.6-3.2,31.1-8.3
		c9.3-6.5,14.7-14.9,18.1-24.2C289.2,115.7,278.9,130.8,261,132.6z"/>
	<linearGradient id="SVGID_10_" gradientUnits="userSpaceOnUse" x1="297.8328" y1="55.789" x2="318.7006" y2="55.789">
		<stop  offset="0" style="stop-color:#007F67"/>
		<stop  offset="1" style="stop-color:#36CC68"/>
	</linearGradient>
	<path class="st11" d="M298.2,66.1c1.6-8.8,6.2-13.7,16-13.8l4.5-6.4h-17C304.1,32.1,296,78.6,298.2,66.1z"/>
</g>
</svg>
